HIERARCHY
ROOT Hips
{
  OFFSET 155.048 98.1286 3.93448
  CHANNELS 6 Xposition Yposition Zposition Zrotation Xrotation Yrotation
  JOINT RightUpLeg
  {
    OFFSET -8.9458 -8.66707 0.101652
    CHANNELS 3 Zrotation Xrotation Yrotation
    JOINT RightLeg
    {
      OFFSET 0 -44.4227 1.3727
      CHANNELS 3 Zrotation Xrotation Yrotation
      JOINT RightFoot
      {
        OFFSET 0.253549 -42.0924 -1.46059
        CHANNELS 3 Zrotation Xrotation Yrotation
        JOINT RightToes
        {
          OFFSET 0.04 -4.41509 8.4991
          CHANNELS 3 Zrotation Xrotation Yrotation
          End Site
          {
            OFFSET -0.08 -0.137448 9.77979
          }
        }
      }
    }
  }
  JOINT Spine
  {
    OFFSET 0 11.8905 0
    CHANNELS 3 Zrotation Xrotation Yrotation
    JOINT Spine1
    {
      OFFSET 0 25.6574 0.127663
      CHANNELS 3 Zrotation Xrotation Yrotation
      JOINT Head
      {
        OFFSET 0 8.73416 0.011341
        CHANNELS 3 Zrotation Xrotation Yrotation
        End Site
        {
          OFFSET -0.29 12.7742 2.51395
        }
      }
      JOINT LeftShoulder1
      {
        OFFSET 8.99 -0.362252 -0.22
        CHANNELS 3 Zrotation Xrotation Yrotation
        JOINT LeftArm
        {
          OFFSET 10.2827 -0.00337999 0.322123
          CHANNELS 3 Zrotation Xrotation Yrotation
          JOINT LeftForeArm
          {
            OFFSET 26.2597 0.099144 -1.42434
            CHANNELS 3 Zrotation Xrotation Yrotation
            JOINT LeftHand
            {
              OFFSET 22.0902 0.085362 1.02216
              CHANNELS 3 Zrotation Xrotation Yrotation
              End Site
              {
                OFFSET 13.419 -0.6 1.50291
              }
            }
          }
        }
      }
      JOINT RightShoulder
      {
        OFFSET -8.99 -0.362252 -0.22
        CHANNELS 3 Zrotation Xrotation Yrotation
        JOINT RightArm
        {
          OFFSET -10.2827 -0.00338 0.322123
          CHANNELS 3 Zrotation Xrotation Yrotation
          JOINT RightForeArm
          {
            OFFSET -26.364 0.099144 -1.42434
            CHANNELS 3 Zrotation Xrotation Yrotation
            JOINT RightHand
            {
              OFFSET -22.0324 0.085362 1.02216
              CHANNELS 3 Zrotation Xrotation Yrotation
              End Site
              {
                OFFSET -13.3284 -0.6 1.50291
              }
            }
          }
        }
      }
    }
  }
  JOINT LeftUpLeg
  {
    OFFSET 8.9458 -8.66707 0.101652
    CHANNELS 3 Zrotation Xrotation Yrotation
    JOINT LeftLeg
    {
      OFFSET 0 -44.4227 1.3727
      CHANNELS 3 Zrotation Xrotation Yrotation
      JOINT LeftFoot
      {
        OFFSET -0.253549 -42.0924 -1.46059
        CHANNELS 3 Zrotation Xrotation Yrotation
        JOINT LeftToes
        {
          OFFSET -0.04 -4.41509 8.4991
          CHANNELS 3 Zrotation Xrotation Yrotation
          End Site
          {
            OFFSET 0.08 -0.047448 9.77979
          }
        }
      }
    }
  }
}
MOTION
Frames:	7
Frame Time:	0.0333333
5.24471 71.7269 0.688827 -10.9448 -1.53651 -86.525 -3.16276 -59.742 1.24401 -1.48719 67.2467 -4.93504 3.83767 4.367 -0.518392 0.0462048 0.000530889 0.662642 8.14155 47.7094 -3.2819 -7.68051 0.600442 2.16939 0.411241 -6.82443 1.74031 -24.6952 5.07863 -12.8221 -49.0308 -12.0159 -26.2662 -12.4332 1.5445 -18.333 20.9225 9.10132 0.883676 36.6983 8.55885 15.8311 21.8261 -37.2077 16.4402 2.0469 22.3029 36.0109 -13.5751 8.71633 5.32596 -12.4976 -58.771 -17.0832 2.48832 72.8739 8.61519 -2.18618 0.723224 0.160215 -1.28794e-009 8.7526e-006 -1.47187e-008 
-0.404839 65.588 0.569884 -15.5506 -0.761793 -87.361 -0.677118 -63.144 1.8388 -6.23686 84.8757 0.656065 1.54076 -3.13861 -0.207027 0.0462048 0.000530889 0.662642 10.6912 50.3044 -4.04045 -9.04809 1.73304 3.00299 0.673217 -8.76101 0.824345 -25.6817 5.61096 -13.9868 -62.0683 -31.7297 -35.4381 -13.1789 22.4363 -4.7916 23.0127 9.07365 1.17608 36.6154 8.62791 16.0267 25.369 -35.476 21.0602 1.69081 24.1434 24.7142 -12.1729 8.8568 5.22651 -11.8659 -61.2244 -16.3884 108.319 89.2999 -97.5194 -1.95483 -8.42157 0.0029851 -1.28794e-009 8.7526e-006 -1.47187e-008 
-5.30659 61.1481 0.295897 -17.5652 -0.262116 -87.5183 1.74695 -65.3972 3.15683 -175.566 83.0877 168.857 0.586086 -12.2621 -0.168637 0.0462048 0.000530889 0.662642 11.4165 50.4877 -4.32753 -9.32742 2.25192 3.12218 0.707617 -8.79761 0.732718 -26.1378 5.99757 -14.9257 -70.1694 -38.0217 -43.4771 -13.2587 30.6154 4.74363 24.8534 9.02985 1.30173 36.6866 8.89497 16.6021 30.6952 -38.4338 28.1359 4.78277 31.814 12.1083 -9.29162 9.14942 4.84124 -12.0415 -62.6884 -17.1118 176.85 78.301 -165.971 -3.37406 -18.0381 -0.215045 -1.28794e-009 8.7526e-006 -1.47187e-008 
-9.8292 57.7142 -0.0615904 -18.7615 -0.0686247 -87.0054 2.4144 -66.4057 2.99527 -177.94 74.5289 170.6 0.995888 -17.4446 -0.149747 0.0462048 0.000530889 0.662642 11.6171 51.4392 -4.87754 -8.88217 -0.0494042 2.4688 0.42953 -7.64567 1.13692 -26.1377 6.06657 -15.1326 -71.6019 -37.2824 -46.8088 -13.3778 32.6494 9.91627 24.5611 8.9873 1.0392 36.879 9.24239 17.2998 36.0541 -41.2915 34.7029 9.6435 40.519 1.27701 -5.38368 9.51433 4.43969 -11.9828 -63.1879 -17.1407 178.083 70.0974 -167.521 -4.04358 -23.0973 -0.431351 -1.28794e-009 8.7526e-006 -1.47187e-008 
-13.5319 55.6025 -0.449707 -19.8151 -0.151528 -86.2564 1.20124 -65.904 0.944692 -178.454 68.4568 171.056 1.60441 -21.1826 -0.0682257 0.0462048 0.000530889 0.662642 12.288 52.5238 -5.58635 -8.70834 -1.88351 2.05333 0.109905 -7.25501 1.08989 -26.0527 6.02783 -15.0616 -72.6324 -35.1066 -50.3814 -14.3065 35.0322 11.1952 23.8695 8.9173 0.558691 36.8474 9.38974 17.6489 37.1213 -39.3302 38.1163 11.805 44.4359 -3.19501 -3.73689 9.64933 4.56062 -10.6931 -62.4596 -15.2218 178.427 64.4484 -167.241 -3.56169 -26.2958 -0.454091 -1.28794e-009 8.7526e-006 -1.47187e-008 
-16.1447 55.3333 -0.897991 -19.6542 -0.459938 -85.5278 -0.139787 -64.4591 -0.997668 -178.59 65.6541 170.75 2.02846 -26.1825 0.0433127 0.0462048 0.000530889 0.662642 12.6394 51.4512 -5.52086 -8.9818 -0.769679 2.31409 -0.0168559 -8.2012 0.432449 -26.0777 6.08524 -15.2218 -72.7154 -31.8003 -53.996 -14.6878 35.5588 7.81465 24.0949 8.80897 0.0713323 36.585 9.313 17.6049 39.0301 -39.0101 42.1863 11.1048 47.7785 -2.10951 -5.90191 9.45045 4.87281 -9.3252 -61.1965 -13.0922 178.469 62.1933 -165.853 -3.47256 -30.1748 -0.545625 -1.28794e-009 8.7526e-006 -1.47187e-008 
-18.1411 56.5744 -1.37958 -17.8862 -0.763591 -84.7127 -0.836043 -63.0048 -1.95341 -178.529 65.9437 170.151 2.56954 -30.4123 0.207498 0.0462048 0.000530889 0.662642 12.4001 48.8909 -4.83354 -9.08316 0.775111 2.67437 -0.106973 -9.52267 -0.141357 -26.0998 6.17895 -15.4933 -68.7134 -26.9794 -54.6756 -13.1227 31.1334 -1.3361 24.2515 8.67695 -0.543111 36.3511 9.19082 17.4423 41.0714 -39.3131 45.8197 8.46944 46.7814 2.16405 -9.20676 9.14521 5.02768 -8.9808 -60.0871 -12.6342 178.37 62.9544 -165.17 -4.17389 -33.1412 -0.78822 -1.28794e-009 8.7526e-006 -1.47187e-008 
